<svg width="17" height="17" viewBox="0 0 17 17" fill="none" xmlns="http://www.w3.org/2000/svg">
<path d="M7.08329 12.7501C8.34057 12.7498 9.56161 12.3289 10.552 11.5544L13.6658 14.6682L14.6674 13.6667L11.5536 10.5528C12.3285 9.56234 12.7497 8.34102 12.75 7.08341C12.75 3.95896 10.2077 1.41675 7.08329 1.41675C3.95883 1.41675 1.41663 3.95896 1.41663 7.08341C1.41663 10.2079 3.95883 12.7501 7.08329 12.7501ZM7.08329 2.83341C9.42717 2.83341 11.3333 4.73954 11.3333 7.08341C11.3333 9.42729 9.42717 11.3334 7.08329 11.3334C4.73942 11.3334 2.83329 9.42729 2.83329 7.08341C2.83329 4.73954 4.73942 2.83341 7.08329 2.83341Z" fill="#2B2C34"/>
</svg>
